<svg xmlns="http://www.w3.org/2000/svg" width="927" height="200" viewBox="0 0 927 200"><g><path d="M41.4 170.796a6.135 6.135 0 0 0-6.128 6.129 6.134 6.134 0 0 0 6.128 6.126 6.134 6.134 0 0 0 6.128-6.126 6.135 6.135 0 0 0-6.128-6.129"/><path d="M72.379 167.119H10.421V70.074h61.958v97.045zM41.4 184.962c-4.432 0-8.038-3.605-8.038-8.037 0-4.433 3.606-8.039 8.038-8.039s8.039 3.606 8.039 8.039c0 4.432-3.607 8.037-8.039 8.037M36.389 57.398h8.661a1.552 1.552 0 1 1 0 3.104h-8.661a1.552 1.552 0 1 1 0-3.104m33.719-7.987H12.692A6.1 6.1 0 0 0 6.6 55.503V181.15a6.098 6.098 0 0 0 6.092 6.091h57.416a6.098 6.098 0 0 0 6.092-6.091V55.503a6.1 6.1 0 0 0-6.092-6.092M204.33 77.22H103.984V63.847H204.33V77.22zm-3.27-26.725h-93.806a7.099 7.099 0 0 0-7.091 7.091v56.441a7.098 7.098 0 0 0 7.091 7.091h93.806c3.91 0 7.091-3.18 7.091-7.091V57.586a7.099 7.099 0 0 0-7.091-7.091M154.644 189.555a23.315 23.315 0 0 1-16.596-6.875 23.315 23.315 0 0 1-6.874-16.596c0-12.942 10.529-23.47 23.471-23.47 12.941 0 23.47 10.528 23.47 23.47 0 12.942-10.529 23.471-23.471 23.471m51.596-38.033h-28.531c-4.842-7.642-13.368-12.729-23.064-12.729-9.697 0-18.223 5.087-23.065 12.729h-28.631v29.027h28.55a27.51 27.51 0 0 0 3.847 4.833c5.155 5.155 12.009 7.994 19.298 7.994 9.738 0 18.296-5.131 23.127-12.827h28.469v-29.027z"/></g><path d="M153.69 145.276h1.91v6.342h-1.91zM145.068 147.598l3.171 5.494-1.655.955-3.171-5.493zM137.1 154.858l5.492 3.173-.955 1.654-5.493-3.172zM133.836 165.129h6.343v1.91h-6.343zM141.646 172.485l.955 1.656-5.492 3.17-.956-1.656zM146.576 178.127l1.655.955-3.17 5.494-1.656-.955zM153.689 180.551h1.91v6.342h-1.91zM162.705 178.125l3.173 5.49-1.654.956-3.172-5.49zM169.112 165.129h6.341v1.91h-6.341zM172.195 154.846l.955 1.655-5.493 3.17-.955-1.655zM164.213 147.58l1.655.954-3.17 5.493-1.655-.955zM155.51 165.48l-.932-1.576-11.776 6.961 1.944 3.289 10.854-6.416 11.096 6.407-.001.001 5.493 3.17.955-1.655z"/><g><path d="M244.863 107.707c-5.428 1.589-8.544 7.284-6.955 12.717l17.107 58.392c1.596 5.429 7.288 8.537 12.721 6.948 5.432-1.593 8.544-7.285 6.955-12.71l-17.111-58.392c-1.592-5.436-7.284-8.544-12.717-6.955M370.878 107.707c5.428 1.589 8.544 7.284 6.955 12.717l-17.107 58.392c-1.596 5.429-7.288 8.537-12.721 6.948-5.432-1.593-8.544-7.285-6.955-12.71l17.111-58.392c1.593-5.436 7.284-8.544 12.717-6.955"/><path d="M384.072 128.565l-.753-.22a103.558 103.558 0 0 0 2.094-20.731c0-48.748-34.06-86.934-77.542-86.934s-77.542 38.186-77.542 86.934c0 7.005.71 13.971 2.093 20.731l-.752.22c-5.429 1.589-9.242 7.49-7.649 12.919l7.935 27.095c1.593 5.433 7.986 8.343 13.415 6.75l4.549-1.328-13.705-46.765c-1.496-6.873-2.065-12.468-2.065-19.622 0-46.605 32.382-83.113 73.721-83.113s73.721 36.508 73.721 83.113c0 7.15-.569 12.746-2.065 19.622l-13.705 46.765 4.548 1.328c5.429 1.593 11.823-1.317 13.415-6.75l7.936-27.095c1.592-5.429-2.22-11.33-7.649-12.919M20.005 21.796c0-2.238-1.848-3.958-4.093-3.958-2.24 0-3.958 1.72-3.958 3.958 0 2.246 1.718 4.093 3.958 4.093 2.245 0 4.093-1.847 4.093-4.093m15.827-6.992h31.136l4.088 4.618c1.186 1.322 1.454 1.584 1.454 2.246 0 .654-.397 1.316-1.32 2.24l-5.673 5.408-3.561-3.823-4.355 3.425-3.432-3.298-3.561 3.298-3.824-3.298-5.145 4.62h-5.673c-3.431 4.484-6.863 7.52-13.189 7.52-8.445 0-15.308-6.993-15.308-15.7 0-8.572 6.863-15.436 15.173-15.436 6.994 0 10.156 3.433 13.19 8.18M417.699 128.858H596.71v-5.731H417.699c-4.071 0-7.383 3.312-7.383 7.383v41.433c0 4.071 3.312 7.383 7.383 7.383H596.71v-5.731H417.699a1.654 1.654 0 0 1-1.652-1.652v-3.974h177.39v-1.91h-177.39v-3.353h174.935v-1.91H416.047v-3.352h173.497v-1.91H416.047v-3.353h173.027v-1.91H416.047v-3.353h173.497v-1.91H416.047v-3.353h174.935v-1.91H416.047v-3.352h177.39v-1.91h-177.39v-3.973c0-.911.741-1.652 1.652-1.652M770.208 141.187h-12.284c-4.175-10.64-14.528-18.178-26.648-18.178-10.379 0-19.469 5.526-24.487 13.796-2.283-4.884-7.229-8.283-12.966-8.283-5.736 0-10.682 3.399-12.965 8.284-5.018-8.271-14.107-13.797-24.487-13.797-12.12 0-22.473 7.538-26.648 18.178H617.44v3.821h11.087a28.745 28.745 0 0 0-.779 6.624c0 15.808 12.815 28.622 28.623 28.622 15.807 0 28.623-12.814 28.623-28.622 0-3.34-.578-6.543-1.629-9.523.377-5.446 4.918-9.766 10.458-9.766 5.541 0 10.081 4.318 10.46 9.764a28.58 28.58 0 0 0-1.63 9.525c0 15.808 12.816 28.622 28.623 28.622s28.623-12.814 28.623-28.622c0-2.281-.276-4.497-.779-6.624h11.088v-3.821zM585.18 80.376c-7.543 0-13.679-6.136-13.679-13.679s6.136-13.679 13.679-13.679l11.53-.001V37.069a6.88 6.88 0 0 0-6.872-6.871h-98.482a6.878 6.878 0 0 0-6.871 6.871v59.254a6.878 6.878 0 0 0 6.871 6.872h98.482a6.88 6.88 0 0 0 6.872-6.872V80.376h-11.53z"/><path d="M584.018 72.217a5.521 5.521 0 1 1 0-11.042 5.521 5.521 0 0 1 0 11.042m1.162-17.289c-6.489.001-11.768 5.281-11.768 11.769 0 6.489 5.279 11.769 11.768 11.769h11.53V54.928h-11.53zM877.013 81.216H850.05v-1.91h26.963v1.91zm-.739 6.633l-26.337-3.128.226-1.898 26.337 3.129-.226 1.897zm.226-13.279l-26.337 3.127-.226-1.898 26.337-3.127.226 1.898zm-14.395-21.565c6.204 0 11.617 3.372 14.515 8.383-2.898 5.009-8.311 8.381-14.515 8.381-6.205 0-11.618-3.372-14.516-8.381 2.898-5.011 8.311-8.383 14.516-8.383m-33.474 16.764c-6.204 0-11.617-3.372-14.515-8.381 2.898-5.011 8.311-8.383 14.515-8.383 6.205 0 11.618 3.372 14.516 8.383-2.898 5.009-8.311 8.381-14.516 8.381m11.942 7.928l-26.337-3.127.226-1.898 26.337 3.127-.226 1.898zm-26.111 10.152l-.226-1.897 26.337-3.129.226 1.898-26.337 3.128zm-.739-8.543h26.963v1.91h-26.963v-1.91zm92.098-26.301c-8.051 0-14.577 6.527-14.577 14.578v35.479c-3.115-3.809-7.006-6.894-11.534-9.313 2.287-3.938 3.606-8.748 3.723-14.542h.011V46.424c0-15.891-7.492-34.29-16.732-34.29-7.796 0-14.346 13.095-16.203 26.732a77.766 77.766 0 0 0-10.281 0c-1.858-13.637-8.409-26.732-16.205-26.732-9.239 0-16.73 18.399-16.73 34.29V79.207h.01c.116 5.795 1.435 10.604 3.723 14.542-12.312 6.579-19.947 18.036-19.947 35.718v55.002H899.658v-55.002c0-.139-.01-.272-.01-.41h6.173c8.053 0 14.579-6.526 14.579-14.578V67.583c0-8.051-6.526-14.578-14.579-14.578M652.298 91.651c-9.8 0-17.773-7.971-17.773-17.771s7.973-17.773 17.773-17.773 17.773 7.973 17.773 17.773-7.973 17.771-17.773 17.771m0-38.745c-11.565 0-20.974 9.409-20.974 20.974s9.409 20.975 20.974 20.975c11.566 0 20.975-9.41 20.975-20.975s-9.409-20.974-20.975-20.974"/><path d="M652.298 58.018c-8.747 0-15.862 7.116-15.862 15.863 0 8.745 7.115 15.86 15.862 15.86s15.863-7.115 15.863-15.86c0-8.747-7.116-15.863-15.863-15.863"/><path d="M652.298 96.766c-12.619 0-22.884-10.266-22.884-22.885s10.265-22.885 22.884-22.885 22.886 10.266 22.886 22.885-10.267 22.885-22.886 22.885m32.008-45.948l-1.348-1.048-1.323-1.029 1.323-1.03 1.348-1.049-1.348-1.047-1.345-1.048h-58.628v.001l-1.345 1.047-1.347 1.047 1.347 1.05 1.345 1.046-1.345 1.047-1.347 1.048 1.347 1.047 1.345 1.049-1.345 1.047-1.347 1.047 1.347 1.048 1.345 1.048-1.345 1.046-1.347 1.049 1.347 1.046 1.345 1.047-1.345 1.05-1.347 1.046 1.347 1.049 1.345 1.046-1.345 1.048-1.347 1.047 1.347 1.048 1.345 1.047-1.345 1.048-1.347 1.049 1.347 1.047 1.345 1.047-1.345 1.047-1.347 1.048 1.347 1.047 1.345 1.049-1.345 1.046-1.347 1.049 1.347 1.047 1.345 1.047-1.345 1.048-1.347 1.047 1.347 1.048 1.345 1.048-1.345 1.047-1.347 1.047 1.347 1.048 1.345 1.047-1.345 1.048-1.347 1.048 1.347 1.048 1.345 1.047-1.345 1.047-1.347 1.048 1.347 1.047 1.323 1.029-1.323 1.031-1.347 1.048 1.347 1.048 1.345 1.048v-.001h58.628l1.345-1.047 1.348-1.048-1.348-1.049-1.345-1.047 1.345-1.046 1.348-1.049-1.348-1.046-1.345-1.049 1.345-1.047 1.348-1.047-1.348-1.048-1.345-1.048 1.345-1.047 1.348-1.048-1.348-1.047-1.345-1.046 1.345-1.05 1.348-1.046-1.348-1.049-1.345-1.046 1.345-1.048 1.348-1.048-1.348-1.047-1.345-1.048 1.345-1.047 1.348-1.049-1.348-1.047-1.345-1.047 1.345-1.047 1.348-1.048-1.348-1.047-1.345-1.049 1.345-1.047 1.348-1.048-1.348-1.048-1.345-1.046 1.345-1.048 1.348-1.047-1.348-1.048-1.345-1.048 1.345-1.047 1.348-1.048-1.348-1.047-1.345-1.048 1.345-1.047 1.348-1.048-1.348-1.048-1.345-1.047 1.345-1.047 1.348-1.048zM437.792 60.576c-8.349 0-15.142 6.793-15.142 15.141 0 8.349 6.793 15.142 15.142 15.142s15.142-6.793 15.142-15.142c0-8.348-6.793-15.141-15.142-15.141M435.637 58.816l-8.272-8.273v11.711a16.977 16.977 0 0 1 8.272-3.438"/></g><path d="M447.823 48.239h-20.061l10.03 10.031z"/><g><path d="M424.329 86.144a16.955 16.955 0 0 1-3.438-8.27l-8.27 8.27h11.708zM420.891 73.561a16.955 16.955 0 0 1 3.438-8.271h-11.708l8.27 8.271zM454.692 77.874a16.95 16.95 0 0 1-3.437 8.27h11.707l-8.27-8.27zM448.219 62.255V50.544l-8.272 8.274a16.929 16.929 0 0 1 8.272 3.437"/></g><path d="M450.13 49.195v14.183h14.182z"/><g><path d="M451.254 65.289a16.945 16.945 0 0 1 3.438 8.271l8.27-8.271h-11.708zM427.365 89.18v11.711l8.272-8.273a16.935 16.935 0 0 1-8.272-3.438"/></g><path d="M450.13 102.239l14.182-14.184H450.13zM455.237 75.717l10.031 10.031V65.685zM425.454 49.196l-14.183 14.182h14.183z"/><g><path d="M439.947 92.617l8.272 8.273V89.18a16.947 16.947 0 0 1-8.272 3.437"/></g><path d="M410.316 65.685v20.064l10.03-10.032zM427.762 103.195h20.061l-10.031-10.031zM425.454 102.238V88.055h-14.183z"/><g><path d="M761.768 52.475h-16.836a4.786 4.786 0 0 0-4.781 4.78v45.94h26.397v-45.94a4.786 4.786 0 0 0-4.78-4.78M727.788 40.425c0-.029.008-.055.008-.084v-7.752c0-2.626-1.591-6.22-3.536-7.985l-9.22-8.368c-1.945-1.766-3.536-1.06-3.536 1.566V40.341c0 .029.008.055.008.084h16.276zM706.452 60.489v37.925a4.786 4.786 0 0 0 4.78 4.781h16.836a4.786 4.786 0 0 0 4.781-4.781V60.489h-26.397z"/></g><path d="M708.438 42.335h22.425v16.243h-22.425z"/></svg>